<svg width="288" height="54" viewBox="0 0 288 54" fill="none" xmlns="http://www.w3.org/2000/svg">
<path fill-rule="evenodd" clip-rule="evenodd" d="M160.357 1.17789L161.092 1.34856C163.126 1.82065 165.096 2.53659 166.958 3.48084C168.819 4.42404 170.54 5.61955 172.074 7.03354L172.158 7.11127C173.741 8.57112 175.039 10.3126 175.986 12.2469L176.091 12.4625L176.321 12.932C177.184 14.6947 177.671 16.6175 177.752 18.5784V22.0354H171.441L165.007 21.8745L163.379 21.8744V20.6768L163.344 20.253C163.279 19.4797 163.084 18.7231 162.765 18.0155C162.576 17.5947 162.344 17.1941 162.074 16.8199L161.813 16.458C161.473 15.9882 161.084 15.5566 160.652 15.1708C159.994 14.5838 159.244 14.1095 158.431 13.7671L158.276 13.7017C157.666 13.4447 157.029 13.2557 156.378 13.138L156 13.0697C155.379 12.9576 154.748 12.919 154.119 12.9546L154.026 12.9598C153.272 13.0025 152.528 13.1602 151.821 13.4274C151.075 13.7092 150.38 14.1091 149.761 14.612L149.544 14.7884C148.947 15.2734 148.414 15.8316 147.957 16.4499L147.569 16.9751C147.146 17.5482 146.774 18.1579 146.458 18.7968L146.39 18.9331C146.084 19.5529 145.839 20.2015 145.66 20.8693C145.422 21.7576 145.301 22.6734 145.301 23.5931V26.8715L145.299 29.2521C145.298 30.8247 145.527 32.3889 145.978 33.8954C146.425 35.3889 147.215 36.7573 148.284 37.8916L148.4 38.0138L148.528 38.1503C149.583 39.2689 150.927 40.0728 152.412 40.4727C153.886 40.8699 155.458 40.871 156.931 40.4664C158.402 40.0622 159.735 39.2653 160.788 38.1612L161.264 37.6613L161.883 36.8638C162.279 36.3538 162.604 35.7924 162.849 35.1949C163.199 34.3386 163.379 33.4223 163.379 32.4971V32.3219H170.794H177.752V34.4383L177.632 35.6462C177.455 37.4211 176.994 39.1561 176.267 40.785C175.322 42.8491 174.003 44.7198 172.375 46.302L172.282 46.3924C170.589 48.0387 168.624 49.4171 166.504 50.4554C164.368 51.5006 162.082 52.2056 159.728 52.5448L159.105 52.6347C156.335 53.0336 153.524 53.0335 150.754 52.6345L150.65 52.6194L150.359 52.5775C147.716 52.1967 145.15 51.4017 142.755 50.2218L142.524 50.1081C140.288 49.0072 138.283 47.489 136.617 45.6352C134.948 43.7779 133.612 41.6463 132.669 39.3344L132.529 38.9922C131.494 36.4538 130.905 33.7556 130.789 31.0166L130.691 28.7074L130.557 25.5196C130.465 23.3549 130.655 21.1874 131.122 19.0716C131.589 16.9541 132.304 14.899 133.252 12.9484L133.271 12.9086C134.228 10.9383 135.5 9.13685 137.035 7.57491L137.316 7.28982L137.552 7.04989C139.114 5.46073 140.953 4.16949 142.979 3.23938L143.095 3.18588C145.055 2.28627 147.105 1.59996 149.211 1.13878L151.934 0.693232L154.526 0.536178C155.885 0.536148 157.242 0.650224 158.582 0.877203L160.357 1.17789ZM56.9116 18.435L57.1564 32.8834C57.1815 34.3635 57.655 35.8013 58.5145 37.0066L58.6882 37.2502C59.4413 38.3064 60.4349 39.1681 61.587 39.7641C62.7392 40.3604 64.0177 40.6716 65.315 40.6716H66.0188H66.6904C68.004 40.6716 69.2936 40.3191 70.4245 39.6508C71.5646 38.9769 72.5606 38.0847 73.3555 37.0254L73.4551 36.8927C74.3025 35.7638 74.7717 34.3961 74.7956 32.9847L75.0421 18.435V1.60457H82.3821H89.4388L92.8258 6.53199L96.2123 11.3499L102.3 20.1355L108.388 28.921L109.138 29.7582L109.887 30.5954L110.17 16.1547L110.41 1.60457H117.394H124.358L124.368 2.40504L124.373 3.41453L124.363 27.4451L124.358 51.4756V52.0725L123.761 52.0725L117.11 52.0725H110.636L109.191 50.3006L107.928 48.7719L99.0956 36.1541L90.2626 23.5363L89.2966 22.1522V23.5363L89.1011 30.7632L88.9878 34.952C88.9337 36.9537 88.4472 38.9199 87.5617 40.7158C86.6714 42.5208 85.4915 44.1679 84.0688 45.5915L83.8195 45.8409C82.2297 47.4314 80.4096 48.7736 78.4203 49.8225L78.0897 49.9968L77.4717 50.3228C75.672 51.2722 73.7483 51.9653 71.7565 52.3819L71.4726 52.4414C69.6652 52.8198 67.8235 53.0105 65.9769 53.0105C64.1304 53.0105 62.2892 52.8157 60.4837 52.4291L60.1972 52.3678C58.2024 51.9407 56.2636 51.2843 54.4197 50.4116L54.2079 50.3114C52.2289 49.3753 50.4119 48.1296 48.8253 46.621L48.4645 46.278L47.7962 45.6427C46.4135 44.3286 45.2558 42.7965 44.3693 41.1075C43.5204 39.4286 43.0607 37.5801 43.0243 35.6992L42.7357 20.7646L42.9079 2.97298V2.26448V1.60457H49.9175H56.9116V18.435ZM198.001 27.0319V51.8769L197.287 51.9138L196.573 51.9512L190.624 51.9308L184.675 51.9098L184.25 51.8934L183.825 51.8769V27.0319V2.18625V1.39668L184.614 1.39668L191.251 1.39668L198.001 1.39668V27.0319ZM259.598 10.2163L263.979 19.0018L264.554 18.9616L265.129 18.9219L269.378 10.3177L273.627 1.71409L280.095 1.55312L286.563 1.39158L287.082 1.39158L287.746 1.39158L279.584 18.3392L271.644 34.3262V43.0664V52.3372L265.481 52.3372L259.317 52.1603L258.421 52.1603L257.48 52.1603V43.2982V34.8028L252.108 23.7676L246.735 12.8424H239.785H232.834L232.685 32.4636L232.536 51.8769H225.468H218.401L218.252 32.4636L218.179 12.8424H211.021H203.938V7.65589V2.89755V2.28893V1.43069H229.702H255.218L259.598 10.2163Z" fill="white"/>
<path d="M37.0814 1.98408V2.88078L37.0899 6.94368V11.0066V11.7026V12.3981L25.1578 12.5529L14.135 12.707V18.0917V23.4764L23.7425 23.6323L34.257 23.6323L34.2655 25.1769L34.257 29.4563L34.2485 33.7357V35.0961L23.3703 35.0961H13.8518V43.2678V51.817L13.2965 51.817L12.7418 51.817L6.54498 51.817L0.253906 51.817V26.2754V1.08739H18.3238H37.0814V1.98408Z" fill="white"/>
</svg>
