<svg width="29" height="22" viewBox="0 0 29 22" fill="none" xmlns="http://www.w3.org/2000/svg">
<path d="M23.9064 2.58549C22.092 1.75567 20.1651 1.15087 18.1537 0.813232C17.9005 1.24933 17.6192 1.84008 17.4223 2.30416C15.283 1.99473 13.159 1.99473 11.0493 2.30416C10.8524 1.84008 10.557 1.24933 10.3179 0.813232C8.29255 1.15087 6.36552 1.75567 4.56377 2.58549C0.920905 7.95844 -0.0636569 13.2047 0.428636 18.3808C2.84782 20.139 5.18273 21.2078 7.47678 21.9112C8.03932 21.1516 8.54578 20.3358 8.98176 19.4779C8.15194 19.1684 7.36427 18.7886 6.6047 18.3386C6.80162 18.198 6.99854 18.0432 7.1814 17.8885C11.7667 19.9843 16.7332 19.9843 21.262 17.8885C21.4589 18.0432 21.6419 18.198 21.8388 18.3386C21.0793 18.7886 20.2916 19.1684 19.4618 19.4779C19.8979 20.3358 20.4041 21.1516 20.9668 21.9112C23.2593 21.2078 25.6083 20.139 28.0148 18.3808C28.6196 12.3891 27.057 7.18482 23.9064 2.58549ZM9.61465 15.1879C8.23623 15.1879 7.11104 13.9362 7.11104 12.4031C7.11104 10.8699 8.20814 9.61819 9.61465 9.61819C11.0071 9.61819 12.1464 10.8699 12.1183 12.4031C12.1183 13.9362 11.0071 15.1879 9.61465 15.1879ZM18.857 15.1879C17.4786 15.1879 16.3519 13.9362 16.3519 12.4031C16.3519 10.8699 17.4505 9.61819 18.857 9.61819C20.2495 9.61819 21.3887 10.8699 21.3605 12.4031C21.3605 13.9362 20.2635 15.1879 18.857 15.1879Z" fill="white"/>
</svg>
