<svg viewBox="0 0 26 30" xmlns="http://www.w3.org/2000/svg">
  <path
    d="M16.8014 0.991665C16.1948 0.828323 15.5482 0.911995 15.0031 1.22436C14.458 1.53673 14.0589 2.05235 13.8931 2.65833L7.19314 26.9999C7.11101 27.3009 7.08898 27.6151 7.12829 27.9245C7.16761 28.234 7.26751 28.5327 7.42228 28.8035C7.57705 29.0744 7.78366 29.3121 8.03031 29.503C8.27697 29.694 8.55883 29.8346 8.8598 29.9166C9.06627 29.9724 9.27926 30.0004 9.49313 29.9999C10.0159 30.0042 10.5256 29.8358 10.9429 29.5209C11.3603 29.206 11.6621 28.7622 11.8015 28.2583L18.4681 3.90832C18.5502 3.60738 18.5723 3.2932 18.533 2.98374C18.4936 2.67428 18.3937 2.37559 18.239 2.10474C18.0842 1.83389 17.8776 1.59619 17.6309 1.4052C17.3843 1.21422 17.1024 1.0737 16.8014 0.991665Z"
  />
  <path
    d="M2.36666 0C1.73898 0 1.13701 0.249344 0.693179 0.693179C0.249344 1.13701 0 1.73898 0 2.36666V27.6333C0.0358536 28.2377 0.30125 28.8057 0.741928 29.221C1.18261 29.6363 1.76528 29.8676 2.37083 29.8676C2.97637 29.8676 3.55905 29.6363 3.99973 29.221C4.4404 28.8057 4.7058 28.2377 4.74165 27.6333V2.36666C4.73945 1.73822 4.48825 1.13627 4.0431 0.692671C3.59794 0.249074 2.99511 -3.86852e-06 2.36666 0Z"
  />
  <path
    d="M22.899 0C22.2706 -3.86852e-06 21.6678 0.249074 21.2226 0.692671C20.7774 1.13627 20.5262 1.73822 20.524 2.36666V27.6333C20.5599 28.2377 20.8253 28.8057 21.266 29.221C21.7066 29.6363 22.2893 29.8676 22.8949 29.8676C23.5004 29.8676 24.0831 29.6363 24.5238 29.221C24.9644 28.8057 25.2298 28.2377 25.2657 27.6333V2.36666C25.2657 1.73898 25.0163 1.13701 24.5725 0.693179C24.1287 0.249344 23.5267 0 22.899 0Z"
  />
</svg>