<svg viewBox="0 0 21 20" fill="none" xmlns="http://www.w3.org/2000/svg">
  <path
    d="M10.5003 17.5L10.4169 17.3749C9.83808 16.5066 9.54864 16.0725 9.16624 15.7582C8.82771 15.4799 8.43763 15.2712 8.01833 15.1438C7.5447 15 7.02292 15 5.97934 15H4.83366C3.90024 15 3.43353 15 3.07701 14.8183C2.7634 14.6586 2.50844 14.4036 2.34865 14.09C2.16699 13.7335 2.16699 13.2668 2.16699 12.3333V5.16667C2.16699 4.23325 2.16699 3.76654 2.34865 3.41002C2.50844 3.09641 2.7634 2.84144 3.07701 2.68166C3.43353 2.5 3.90024 2.5 4.83366 2.5H5.16699C7.03383 2.5 7.96725 2.5 8.68029 2.86331C9.3075 3.18289 9.81744 3.69282 10.137 4.32003C10.5003 5.03307 10.5003 5.96649 10.5003 7.83333M10.5003 17.5V7.83333M10.5003 17.5L10.5837 17.3749C11.1626 16.5066 11.452 16.0725 11.8344 15.7582C12.1729 15.4799 12.563 15.2712 12.9823 15.1438C13.456 15 13.9777 15 15.0213 15H16.167C17.1004 15 17.5671 15 17.9236 14.8183C18.2372 14.6586 18.4922 14.4036 18.652 14.09C18.8337 13.7335 18.8337 13.2668 18.8337 12.3333V5.16667C18.8337 4.23325 18.8337 3.76654 18.652 3.41002C18.4922 3.09641 18.2372 2.84144 17.9236 2.68166C17.5671 2.5 17.1004 2.5 16.167 2.5H15.8337C13.9668 2.5 13.0334 2.5 12.3204 2.86331C11.6932 3.18289 11.1832 3.69282 10.8636 4.32003C10.5003 5.03307 10.5003 5.96649 10.5003 7.83333"
    stroke-width="1.25" stroke-linecap="round" stroke-linejoin="round" />
</svg>