<svg width="29" height="28" viewBox="0 0 29 28" fill="none" xmlns="http://www.w3.org/2000/svg">
<path d="M14.7317 2.52392C18.4675 2.52392 18.9104 2.53622 20.3866 2.60594C21.7522 2.66745 22.4944 2.89709 22.9865 3.08983C23.6385 3.34407 24.106 3.64753 24.594 4.13552C25.082 4.62351 25.3855 5.091 25.6397 5.74302C25.8324 6.23511 26.058 6.97735 26.1236 8.3429C26.1892 9.81918 26.2056 10.2621 26.2056 13.9979C26.2056 17.7336 26.1933 18.1765 26.1236 19.6528C26.0621 21.0184 25.8324 21.7606 25.6397 22.2527C25.3855 22.9047 25.082 23.3722 24.594 23.8602C24.106 24.3482 23.6385 24.6516 22.9865 24.9059C22.4944 25.0986 21.7522 25.3242 20.3866 25.3898C18.9104 25.4554 18.4675 25.4718 14.7317 25.4718C10.9959 25.4718 10.553 25.4595 9.07674 25.3898C7.71118 25.3283 6.96895 25.0986 6.47686 24.9059C5.82484 24.6516 5.35735 24.3482 4.86936 23.8602C4.38137 23.3722 4.07791 22.9047 3.82366 22.2527C3.63093 21.7606 3.40539 21.0184 3.33977 19.6528C3.27416 18.1765 3.25776 17.7336 3.25776 13.9979C3.25776 10.2621 3.27006 9.81918 3.33977 8.3429C3.40128 6.97735 3.63093 6.23511 3.82366 5.74302C4.07791 5.091 4.38137 4.62351 4.86936 4.13552C5.35735 3.64753 5.82484 3.34407 6.47686 3.08983C6.96895 2.89709 7.71118 2.67155 9.07674 2.60594C10.553 2.53622 10.9959 2.52392 14.7317 2.52392ZM14.7317 0.00195312C10.9303 0.00195312 10.4546 0.0183564 8.96192 0.0880694C7.47334 0.157782 6.45635 0.391525 5.56239 0.74009C4.64382 1.09276 3.86057 1.57254 3.08553 2.35169C2.30638 3.13083 1.83069 3.90998 1.46983 4.83265C1.12536 5.72252 0.887518 6.7395 0.817805 8.23218C0.748092 9.72486 0.731689 10.2005 0.731689 14.002C0.731689 17.8034 0.748092 18.279 0.817805 19.7717C0.887518 21.2603 1.12126 22.2773 1.46983 23.1713C1.82659 24.0857 2.30638 24.869 3.08553 25.644C3.86467 26.4232 4.64382 26.8988 5.56649 27.2597C6.45635 27.6042 7.47334 27.842 8.96602 27.9117C10.4587 27.9814 10.9344 27.9979 14.7358 27.9979C18.5372 27.9979 19.0129 27.9814 20.5056 27.9117C21.9941 27.842 23.0111 27.6083 23.9051 27.2597C24.8196 26.903 25.6028 26.4232 26.3779 25.644C27.157 24.8649 27.6327 24.0857 27.9936 23.1631C28.338 22.2732 28.5759 21.2562 28.6456 19.7635C28.7153 18.2708 28.7317 17.7952 28.7317 13.9938C28.7317 10.1923 28.7153 9.71666 28.6456 8.22398C28.5759 6.7354 28.3421 5.71841 27.9936 4.82445C27.6368 3.90998 27.157 3.12673 26.3779 2.35169C25.5987 1.57254 24.8196 1.09686 23.8969 0.73599C23.007 0.391526 21.99 0.153681 20.4974 0.0839684C19.0088 0.0183562 18.5331 0.00195312 14.7317 0.00195312Z" fill="white"/>
<path d="M14.7316 6.80957C10.7621 6.80957 7.54297 10.0287 7.54297 13.9982C7.54297 17.9677 10.7621 21.1868 14.7316 21.1868C18.7011 21.1868 21.9202 17.9677 21.9202 13.9982C21.9202 10.0287 18.7011 6.80957 14.7316 6.80957ZM14.7316 18.6649C12.1563 18.6649 10.0649 16.5776 10.0649 13.9982C10.0649 11.4188 12.1563 9.33154 14.7316 9.33154C17.3069 9.33154 19.3983 11.4188 19.3983 13.9982C19.3983 16.5776 17.3069 18.6649 14.7316 18.6649Z" fill="white"/>
<path d="M22.2032 8.20784C23.1317 8.20784 23.8845 7.45509 23.8845 6.52653C23.8845 5.59796 23.1317 4.84521 22.2032 4.84521C21.2746 4.84521 20.5219 5.59796 20.5219 6.52653C20.5219 7.45509 21.2746 8.20784 22.2032 8.20784Z" fill="white"/>
</svg>
