<svg width="23" height="22" viewBox="0 0 23 22" fill="none" xmlns="http://www.w3.org/2000/svg">
<path d="M5.3627 3.03339C5.36223 3.96026 4.79325 4.79429 3.9241 5.14223C3.05484 5.49017 2.05889 5.2826 1.40598 4.61728C0.752943 3.95207 0.573353 2.96198 0.951734 2.1139C1.33011 1.26594 2.19095 0.729275 3.12836 0.757139C4.37343 0.794017 5.36329 1.80248 5.3627 3.03339ZM5.43177 6.99421H0.82506V21.2439H5.43177V6.99421ZM12.7104 6.99421H8.12668V21.2439H12.6644V13.7662C12.6644 9.60049 18.158 9.21357 18.158 13.7662V21.2439H22.7071V12.2184C22.7071 5.19597 14.5762 5.45774 12.6644 8.90625L12.7104 6.99421Z" fill="white"/>
</svg>
